<svg width="20" height="20" viewBox="0 0 20 20" fill="none" xmlns="http://www.w3.org/2000/svg">
<path fill-rule="evenodd" clip-rule="evenodd" d="M9.33405 0.125962C9.58598 -0.0419874 9.91418 -0.0419874 10.1661 0.125962L19.1661 6.12596C19.5108 6.35573 19.6039 6.82138 19.3741 7.16603C19.1444 7.51067 18.6787 7.6038 18.3341 7.37404L9.75008 1.65139L1.1661 7.37404C0.821458 7.6038 0.355806 7.51067 0.126042 7.16603C-0.103722 6.82138 -0.010592 6.35573 0.334055 6.12596L9.33405 0.125962ZM9.00008 4.5C9.00008 4.08579 9.33587 3.75 9.75008 3.75H9.75808C10.1723 3.75 10.5081 4.08579 10.5081 4.5V4.508C10.5081 4.92221 10.1723 5.258 9.75808 5.258H9.75008C9.33587 5.258 9.00008 4.92221 9.00008 4.508V4.5ZM9.75008 6.75C12.3002 6.74897 14.8466 6.94658 17.3661 7.34103C17.7311 7.39817 18.0001 7.71257 18.0001 8.082V18H18.7501C19.1643 18 19.5001 18.3358 19.5001 18.75C19.5001 19.1642 19.1643 19.5 18.7501 19.5H0.75008C0.335866 19.5 7.97231e-05 19.1642 7.97231e-05 18.75C7.97231e-05 18.3358 0.335866 18 0.75008 18H1.50008V8.082C1.50008 7.7125 1.7692 7.39806 2.13426 7.341C4.616 6.9531 7.15993 6.75002 9.75008 6.75ZM3.00008 18H5.25008V10.5C5.25008 10.0858 5.58587 9.75 6.00008 9.75C6.41429 9.75 6.75008 10.0858 6.75008 10.5V18H9.00008V10.5C9.00008 10.0858 9.33587 9.75 9.75008 9.75C10.1643 9.75 10.5001 10.0858 10.5001 10.5V18H12.7501V10.5C12.7501 10.0858 13.0859 9.75 13.5001 9.75C13.9143 9.75 14.2501 10.0858 14.2501 10.5V18H16.5001V8.72808C14.2646 8.40888 12.009 8.24907 9.75039 8.25C7.45884 8.25 5.20482 8.41391 3.00008 8.72824V18Z" fill="white"/>
</svg>
