<svg width="13" height="13" viewBox="0 0 13 13" fill="none" xmlns="http://www.w3.org/2000/svg">
<path fill-rule="evenodd" clip-rule="evenodd" d="M6.5 1C5.04131 1 3.64236 1.57946 2.61091 2.61091C1.57946 3.64236 1 5.04131 1 6.5C1 7.22227 1.14226 7.93747 1.41866 8.60476C1.69506 9.27205 2.10019 9.87836 2.61091 10.3891C3.12164 10.8998 3.72795 11.3049 4.39524 11.5813C5.06253 11.8577 5.77773 12 6.5 12C7.22227 12 7.93747 11.8577 8.60476 11.5813C9.27205 11.3049 9.87836 10.8998 10.3891 10.3891C10.8998 9.87836 11.3049 9.27205 11.5813 8.60476C11.8577 7.93747 12 7.22227 12 6.5C12 5.04131 11.4205 3.64236 10.3891 2.61091C9.35764 1.57946 7.95869 1 6.5 1ZM1.90381 1.90381C3.12279 0.68482 4.77609 0 6.5 0C8.22391 0 9.87721 0.68482 11.0962 1.90381C12.3152 3.12279 13 4.77609 13 6.5C13 7.35359 12.8319 8.19883 12.5052 8.98744C12.1786 9.77606 11.6998 10.4926 11.0962 11.0962C10.4926 11.6998 9.77606 12.1786 8.98744 12.5052C8.19883 12.8319 7.35359 13 6.5 13C5.64641 13 4.80117 12.8319 4.01256 12.5052C3.22394 12.1786 2.50739 11.6998 1.90381 11.0962C1.30023 10.4926 0.821439 9.77606 0.494783 8.98744C0.168127 8.19883 0 7.35359 0 6.5C3.97364e-08 4.77609 0.684819 3.12279 1.90381 1.90381ZM6 4C6 3.72386 6.22386 3.5 6.5 3.5H6.50533C6.78148 3.5 7.00533 3.72386 7.00533 4V4.00533C7.00533 4.28148 6.78148 4.50533 6.50533 4.50533H6.5C6.22386 4.50533 6 4.28148 6 4.00533V4ZM5.80639 5.53813C5.97673 5.45363 6.16765 5.41943 6.35676 5.43959C6.54681 5.45984 6.72707 5.53413 6.8762 5.65366C7.02533 5.77319 7.13709 5.93295 7.19823 6.11403C7.25938 6.2951 7.26735 6.48991 7.22121 6.67538L6.74911 8.56644L6.77206 8.55498C7.01784 8.42909 7.31914 8.52629 7.44502 8.77206C7.57091 9.01784 7.47371 9.31914 7.22794 9.44502L7.19632 9.46121C7.02524 9.54678 6.83319 9.58145 6.64297 9.56117C6.45276 9.54088 6.27236 9.46646 6.12316 9.34674C5.97397 9.22702 5.86224 9.06702 5.80124 8.88572C5.74027 8.70454 5.73252 8.50968 5.77889 8.32423L6.25079 6.43396L6.24656 6.43607L6.21921 6.44938C5.97103 6.57045 5.67169 6.4674 5.55062 6.21921C5.42955 5.97103 5.5326 5.67169 5.78079 5.55062L5.80639 5.53813Z" fill="white"/>
</svg>
