<svg width="32" height="32" viewBox="0 0 32 32" fill="none" xmlns="http://www.w3.org/2000/svg">
<path d="M0 8C0 3.58172 3.58172 0 8 0H24C28.4183 0 32 3.58172 32 8V24C32 28.4183 28.4183 32 24 32H8C3.58172 32 0 28.4183 0 24V8Z" fill="#1A1A1D"/>
<path d="M20.7547 15.1972C22.9952 15.1972 24.8115 13.3569 24.8115 11.0869C24.8115 8.81681 22.9952 6.97656 20.7547 6.97656C18.5142 6.97656 16.6979 8.81681 16.6979 11.0869C16.6979 13.3569 18.5142 15.1972 20.7547 15.1972Z" fill="#FF2C55"/>
<path d="M24.5861 22.5869L9.63499 7.43855C8.66277 6.4535 6.99976 7.15178 6.99976 8.54349V23.5962C6.99976 24.3853 7.63138 25.0236 8.40852 25.0236H10.4009C11.1797 25.0236 11.8097 24.3836 11.8097 23.5962V20.1502L16.2071 24.6056C16.4709 24.8729 16.8291 25.0236 17.2033 25.0236H23.5883C24.8436 25.0236 25.472 23.4861 24.5845 22.5869H24.5861Z" fill="#FF2C55"/>
</svg>
